<svg xmlns="http://www.w3.org/2000/svg" xmlns:xlink="http://www.w3.org/1999/xlink" width="100" height="100" viewBox="0 0 100 100">
  <defs>
    <radialGradient id="radial-gradient" cx="-0.025" cy="1.004" r="1.85" gradientTransform="translate(0)" gradientUnits="objectBoundingBox">
      <stop offset="0" stop-color="#f4ec55"/>
      <stop offset="0.241" stop-color="#e48242"/>
      <stop offset="0.346" stop-color="#d66863"/>
      <stop offset="0.442" stop-color="#cd4f74"/>
      <stop offset="0.489" stop-color="#c94379"/>
      <stop offset="1" stop-color="#3f56a6"/>
    </radialGradient>
  </defs>
  <g id="XMLID_1346_" transform="translate(-2.4 -1.1)">
    <path id="XMLID_1418_" d="M52.33,101.1h0A49.88,49.88,0,0,1,2.4,51.17h0A50.118,50.118,0,0,1,52.47,1.1h0A50.089,50.089,0,0,1,102.4,51.17h0A50,50,0,0,1,52.33,101.1Z" transform="translate(0 0)" fill="url(#radial-gradient)"/>
    <g id="XMLID_1347_" transform="translate(22.563 21.388)">
      <path id="XMLID_1352_" d="M48.275,22.741c8.01,0,8.917,0,11.94.151a16.277,16.277,0,0,1,5.592,1.058,10.638,10.638,0,0,1,3.476,2.267,9.262,9.262,0,0,1,2.267,3.476,15.449,15.449,0,0,1,1.058,5.592c.151,3.174.151,4.081.151,11.94,0,8.01,0,8.917-.151,11.94a16.277,16.277,0,0,1-1.058,5.592,10.638,10.638,0,0,1-2.267,3.476A9.262,9.262,0,0,1,65.807,70.5a15.449,15.449,0,0,1-5.592,1.058c-3.174.151-4.081.151-11.94.151-8.01,0-8.917,0-11.94-.151A16.277,16.277,0,0,1,30.742,70.5a10.638,10.638,0,0,1-3.476-2.267A9.262,9.262,0,0,1,25,64.758a15.449,15.449,0,0,1-1.058-5.592c-.151-3.174-.151-4.081-.151-11.94,0-8.01,0-8.917.151-11.94A16.277,16.277,0,0,1,25,29.694a10.638,10.638,0,0,1,2.267-3.476,9.262,9.262,0,0,1,3.476-2.267,15.449,15.449,0,0,1,5.592-1.058c3.174-.151,4.081-.151,11.94-.151m0-5.441c-8.01,0-9.068,0-12.242.151a22.118,22.118,0,0,0-7.255,1.36,15.621,15.621,0,0,0-8.766,8.766,22.118,22.118,0,0,0-1.36,7.255c-.151,3.174-.151,4.232-.151,12.242s0,9.068.151,12.242a22.118,22.118,0,0,0,1.36,7.255,15.621,15.621,0,0,0,8.766,8.766,22.118,22.118,0,0,0,7.255,1.36c3.174.151,4.232.151,12.242.151s9.068,0,12.242-.151a22.118,22.118,0,0,0,7.255-1.36,15.621,15.621,0,0,0,8.766-8.766,22.118,22.118,0,0,0,1.36-7.255c.151-3.174.151-4.232.151-12.242s0-9.068-.151-12.242a22.118,22.118,0,0,0-1.36-7.255,15.621,15.621,0,0,0-8.766-8.766,22.118,22.118,0,0,0-7.255-1.36c-3.023-.151-4.081-.151-12.242-.151" transform="translate(-18.5 -17.3)" fill="#fff"/>
      <path id="XMLID_1349_" d="M43.365,26.9A15.265,15.265,0,1,0,58.63,42.165,15.223,15.223,0,0,0,43.365,26.9m0,25.089a9.975,9.975,0,1,1,9.975-9.975,9.966,9.966,0,0,1-9.975,9.975" transform="translate(-13.59 -12.39)" fill="#fff"/>
      <path id="XMLID_1348_" d="M53.555,27.727A3.627,3.627,0,1,1,49.927,24.1a3.678,3.678,0,0,1,3.627,3.627" transform="translate(-4.283 -13.822)" fill="#fff"/>
    </g>
  </g>
</svg>
